<svg width="330.003" height="11.181" fill="none" xmlns="http://www.w3.org/2000/svg"><path d="M1.001 1.001h328v10h-328z"/><path d="m1.001 1.001 34.366 8.382a28.006 28.006 0 0 0 13.27 0l27.73-6.763a28.006 28.006 0 0 1 13.27 0l27.73 6.763a28.004 28.004 0 0 0 13.269 0l27.731-6.763a28.004 28.004 0 0 1 13.269 0l27.731 6.763a28.004 28.004 0 0 0 13.269 0l27.731-6.763a28.004 28.004 0 0 1 13.269 0l27.731 6.763a28.004 28.004 0 0 0 13.269 0l34.365-8.382" stroke="#5C8FCE" stroke-width="2" stroke-linecap="round"/></svg>