<svg width="89" height="78" fill="none" xmlns="http://www.w3.org/2000/svg"><path d="M82.503 45.485C63.595 42.805 56.4 35.391 54.917 34.803 44.947 27.196 39.25 16.3 36.24 4.183A4.428 4.428 0 0 0 30.75 1L9.233 6.978a4.458 4.458 0 0 0-3.256 4.283v51.087a2.967 2.967 0 0 0 2.964 2.963h2.963v2.963H4.496a4.445 4.445 0 1 0 0 8.89H81.54a7.417 7.417 0 0 0 7.408-7.408V52.828a7.395 7.395 0 0 0-6.446-7.343ZM31.543 3.856a1.466 1.466 0 0 1 1.82 1.04 65.644 65.644 0 0 0 7.166 17.841l-3.003 3.004a1.482 1.482 0 0 0 2.095 2.095l2.511-2.512a50.882 50.882 0 0 0 4.005 5.14l-2.685 2.685a1.482 1.482 0 0 0 2.096 2.095l2.605-2.606a48.935 48.935 0 0 0 4.032 3.631l-2.806 2.806a1.482 1.482 0 0 0 2.095 2.095l3.09-3.09a61.582 61.582 0 0 0 27.523 10.34 4.454 4.454 0 0 1 3.899 4.407v9.52H45.339c-.274 0-.543-.075-.777-.22L26.016 50.715a1.822 1.822 0 0 0-.777-.22H8.94v-28.15h1.481a7.417 7.417 0 0 0 7.409-7.409v-7.27l13.712-3.809Zm33.7 61.455H80.06v2.963H65.243v-2.963Zm-44.45 0h2.964a2.967 2.967 0 0 0 2.963-2.964v-7.719l16.29 10.024c.7.43 1.507.659 2.33.659h11.013v2.963h-35.56v-2.963ZM10.027 9.833l4.841-1.345v6.447a4.45 4.45 0 0 1-4.445 4.445H8.941v-8.12a1.486 1.486 0 0 1 1.085-1.427ZM8.94 53.458h14.816l.002 8.89H8.94v-8.89Zm77.045 16.298a4.45 4.45 0 0 1-4.445 4.445H4.496a1.482 1.482 0 1 1 0-2.964h7.408a2.967 2.967 0 0 0 2.963-2.963v-2.963h2.963v2.963a2.967 2.967 0 0 0 2.964 2.963h35.56a2.967 2.967 0 0 0 2.962-2.963v-2.963h2.964v2.963a2.967 2.967 0 0 0 2.963 2.963H80.06a2.967 2.967 0 0 0 2.963-2.963v-2.963h2.963v4.445Z" fill="#3A4D6B"/></svg>