<svg width="37" height="37" fill="none" xmlns="http://www.w3.org/2000/svg"><path d="M36.903 3.8 35.627.747a1.227 1.227 0 0 0-.368-.487A1.174 1.174 0 0 0 34.11.077a1.218 1.218 0 0 0-.494.351L18.5 18.456 3.383.428A1.206 1.206 0 0 0 2.89.076a1.173 1.173 0 0 0-1.151.182 1.222 1.222 0 0 0-.368.488L.097 3.802a1.249 1.249 0 0 0 .18 1.268l14.435 17.905-6.085 7.256H1.336a1.18 1.18 0 0 0-.974.511 1.262 1.262 0 0 0-.166 1.11l.99 3.045a3.073 3.073 0 0 0 1.092 1.524c.511.377 1.125.58 1.755.579h5.54c.44 0 .877-.1 1.277-.292a3 3 0 0 0 1.033-.824l6.617-8.207 6.616 8.207c.281.35.634.631 1.034.824.4.193.836.293 1.278.292h5.539c.63 0 1.243-.203 1.754-.58.51-.378.892-.91 1.09-1.524l.99-3.044a1.26 1.26 0 0 0-.164-1.11 1.207 1.207 0 0 0-.427-.375 1.177 1.177 0 0 0-.546-.136h-7.291l-6.083-7.255L36.725 5.07a1.263 1.263 0 0 0 .178-1.27Zm-35.704.486L2.477 1.23l5.832 6.957-2.307 2.056L1.2 4.286Zm29.798 5.958L28.69 8.188l5.833-6.957L35.8 4.286l-4.803 5.958Zm-24.229.949L9.091 9.12l.78.933-2.34 2.088-.763-.95Zm22.7.949-2.34-2.088.78-.933 2.323 2.072-.763.949Zm-21.17.948 2.358-2.103 7.053 8.415-2.206 2.627-7.206-8.939Zm8.329 14.98-2.635-2.35 12.352-14.733 2.358 2.103-12.076 14.98Zm6.38-2.35-2.634 2.35-1.093-1.359 2.236-2.773 1.492 1.782Zm1.565 1.866-2.67 2.38-.763-.948 2.653-2.365.78.933Zm-9.474 2.38-2.67-2.38.78-.933 2.652 2.365-.762.949Zm12.546 1.282a.581.581 0 0 0 .454.214h7.566l-.99 3.045a1.85 1.85 0 0 1-.655.914 1.768 1.768 0 0 1-1.052.349h-5.54a1.76 1.76 0 0 1-.766-.176 1.802 1.802 0 0 1-.62-.494l-3.373-4.184 2.687-2.4 2.289 2.732ZM10.959 35.1c-.168.21-.38.378-.62.494-.24.116-.502.176-.767.175H4.033c-.378 0-.746-.121-1.052-.348a1.843 1.843 0 0 1-.655-.914l-.992-3.045h7.568a.591.591 0 0 0 .455-.214l2.288-2.729 2.687 2.4-3.373 4.18Zm7.541-3.638c-.534 0-1.056.163-1.5.467-.444.304-.79.737-.994 1.242a2.835 2.835 0 0 0-.154 1.6c.104.538.361 1.03.74 1.418.377.387.858.65 1.381.758a2.633 2.633 0 0 0 1.56-.158c.493-.21.915-.564 1.211-1.02a2.818 2.818 0 0 0-.336-3.495 2.667 2.667 0 0 0-1.908-.812Zm0 4.308c-.297 0-.587-.09-.834-.26a1.53 1.53 0 0 1-.552-.69 1.579 1.579 0 0 1-.085-.889c.058-.298.2-.573.41-.787a1.465 1.465 0 0 1 1.634-.334c.275.116.509.313.674.566a1.564 1.564 0 0 1-.187 1.943 1.48 1.48 0 0 1-1.06.45Z" fill="#3A4D6B" fill-rule="evenodd"/></svg>