<svg width="40" height="37" fill="none" xmlns="http://www.w3.org/2000/svg"><path d="M22.494.688c.76.45 1.39 1.1 1.829 1.88l15.01 26.728c.437.78.667 1.665.667 2.566v.001c0 .902-.231 1.786-.669 2.567a5.07 5.07 0 0 1-1.826 1.88 4.89 4.89 0 0 1-2.495.69H4.99a4.89 4.89 0 0 1-2.495-.69A5.07 5.07 0 0 1 .67 34.43 5.254 5.254 0 0 1 0 31.863v-.001c0-.9.23-1.785.667-2.566L15.67 2.568A5.069 5.069 0 0 1 17.5.688 4.89 4.89 0 0 1 19.997 0a4.89 4.89 0 0 1 2.497.688Zm14.328 34.406a3.635 3.635 0 0 0 1.322-1.366 3.761 3.761 0 0 0 .491-1.862c0-.655-.17-1.298-.491-1.863L23.134 3.274a3.678 3.678 0 0 0-1.325-1.36A3.548 3.548 0 0 0 20 1.418c-.635 0-1.259.172-1.809.498a3.678 3.678 0 0 0-1.325 1.36L1.856 30.002a3.802 3.802 0 0 0-.483 1.859v.002c0 .653.168 1.294.485 1.86a3.678 3.678 0 0 0 1.324 1.362 3.55 3.55 0 0 0 1.808.5h30.02a3.503 3.503 0 0 0 1.812-.492ZM22.833 14.455a4.636 4.636 0 0 1-2.627.82 4.67 4.67 0 0 1-3.34-1.427 4.962 4.962 0 0 1-.59-6.138 4.762 4.762 0 0 1 2.121-1.79 4.608 4.608 0 0 1 2.732-.277c.917.188 1.76.65 2.42 1.33a4.906 4.906 0 0 1 1.295 2.49 5.007 5.007 0 0 1-.269 2.81 4.839 4.839 0 0 1-1.741 2.182Zm-.763-6.91a3.287 3.287 0 0 0-1.864-.582c-.89 0-1.742.364-2.371 1.01a3.5 3.5 0 0 0-.983 2.44c0 .681.197 1.348.566 1.915a3.37 3.37 0 0 0 1.505 1.27c.613.261 1.287.33 1.938.196a3.325 3.325 0 0 0 1.717-.943 3.476 3.476 0 0 0 .983-2.439c0-.45-.086-.9-.256-1.32a3.428 3.428 0 0 0-1.235-1.548Zm-1.106 1.892a1.423 1.423 0 0 0-1.026-.325v.014a.682.682 0 0 1-.515-.135.718.718 0 0 1-.28-.572.73.73 0 0 1 .139-.427.692.692 0 0 1 .457-.28 2.759 2.759 0 0 1 1.977.54c.57.427.963 1.06 1.101 1.771a.719.719 0 0 1-.065.537.69.69 0 0 1-.416.333.67.67 0 0 1-.522-.068.706.706 0 0 1-.323-.427 1.504 1.504 0 0 0-.527-.961Zm-2.496 7.207a4.962 4.962 0 0 1-.59 6.138 4.669 4.669 0 0 1-3.342 1.426 4.633 4.633 0 0 1-2.627-.82 4.84 4.84 0 0 1-1.741-2.182 4.983 4.983 0 0 1-.27-2.809 4.902 4.902 0 0 1 1.295-2.49 4.69 4.69 0 0 1 2.42-1.33 4.608 4.608 0 0 1 2.733.277 4.76 4.76 0 0 1 2.122 1.79Zm3.484 5.403a4.96 4.96 0 0 1-.797-2.701 4.94 4.94 0 0 1 1.387-3.436 4.667 4.667 0 0 1 3.341-1.427c.935 0 1.85.286 2.627.82a4.837 4.837 0 0 1 1.742 2.182 4.983 4.983 0 0 1 .269 2.809 4.904 4.904 0 0 1-1.294 2.49 4.69 4.69 0 0 1-2.421 1.33 4.608 4.608 0 0 1-2.732-.276 4.761 4.761 0 0 1-2.122-1.791Zm5.795-5.569a3.288 3.288 0 0 0-1.864-.582 3.31 3.31 0 0 0-2.371 1.01 3.5 3.5 0 0 0-.983 2.44c0 .682.197 1.348.566 1.916a3.372 3.372 0 0 0 1.505 1.27c.613.261 1.287.33 1.938.196a3.326 3.326 0 0 0 1.717-.944 3.483 3.483 0 0 0 .982-2.438c0-.451-.086-.9-.255-1.32a3.428 3.428 0 0 0-1.235-1.548Zm-15.074 5.735a3.29 3.29 0 0 0 1.863.581 3.314 3.314 0 0 0 2.37-1.012 3.517 3.517 0 0 0 .419-4.352 3.376 3.376 0 0 0-1.505-1.27 3.273 3.273 0 0 0-1.938-.197 3.329 3.329 0 0 0-1.717.944 3.488 3.488 0 0 0-.982 2.439c0 .45.085.9.255 1.32.253.63.684 1.168 1.235 1.547Zm13.857-4.095c-.29-.24-.66-.354-1.032-.32a.674.674 0 0 1-.506-.14.711.711 0 0 1-.27-.56.72.72 0 0 1 .138-.425.684.684 0 0 1 .446-.275 2.759 2.759 0 0 1 1.977.54c.57.427.964 1.06 1.102 1.771a.74.74 0 0 1-.065.538.689.689 0 0 1-.416.332.67.67 0 0 1-.522-.067.705.705 0 0 1-.323-.428 1.494 1.494 0 0 0-.529-.966Zm-10.291-.954c.57.427.963 1.06 1.101 1.771a.72.72 0 0 1-.065.538.69.69 0 0 1-.416.332.671.671 0 0 1-.522-.067.705.705 0 0 1-.323-.428 1.497 1.497 0 0 0-.528-.966 1.417 1.417 0 0 0-1.032-.32.675.675 0 0 1-.507-.14.713.713 0 0 1-.269-.56c0-.153.048-.302.137-.425a.685.685 0 0 1 .447-.274 2.759 2.759 0 0 1 1.977.539Zm-9.175 8.125a4.637 4.637 0 0 1 2.627-.82 4.67 4.67 0 0 1 3.341 1.426 4.962 4.962 0 0 1 .59 6.138 4.763 4.763 0 0 1-2.121 1.79 4.607 4.607 0 0 1-2.732.277 4.685 4.685 0 0 1-2.421-1.33 4.906 4.906 0 0 1-1.295-2.49 5.004 5.004 0 0 1 .27-2.81 4.833 4.833 0 0 1 1.741-2.181Zm10.516 0a4.638 4.638 0 0 1 2.627-.82 4.67 4.67 0 0 1 3.34 1.426 4.962 4.962 0 0 1 .59 6.138 4.76 4.76 0 0 1-2.12 1.79 4.607 4.607 0 0 1-2.733.277 4.685 4.685 0 0 1-2.42-1.33 4.902 4.902 0 0 1-1.295-2.49 4.967 4.967 0 0 1 .27-2.81 4.835 4.835 0 0 1 1.74-2.181Zm10.102 0a4.637 4.637 0 0 1 2.627-.82 4.67 4.67 0 0 1 3.34 1.426 4.94 4.94 0 0 1 1.388 3.436 4.96 4.96 0 0 1-.797 2.702 4.76 4.76 0 0 1-2.122 1.79 4.607 4.607 0 0 1-2.732.277 4.69 4.69 0 0 1-2.421-1.33 4.909 4.909 0 0 1-1.294-2.49 5.007 5.007 0 0 1 .269-2.81 4.834 4.834 0 0 1 1.742-2.181Zm-19.854 6.91c.55.38 1.2.581 1.863.581a3.316 3.316 0 0 0 2.37-1.012 3.517 3.517 0 0 0 .419-4.353 3.378 3.378 0 0 0-1.506-1.27 3.268 3.268 0 0 0-1.937-.196 3.33 3.33 0 0 0-1.718.944 3.48 3.48 0 0 0-.982 2.438c0 .451.086.9.255 1.32.254.63.684 1.169 1.236 1.548Zm10.515 0a3.29 3.29 0 0 0 1.863.581 3.314 3.314 0 0 0 2.37-1.012 3.517 3.517 0 0 0 .419-4.353 3.376 3.376 0 0 0-1.505-1.27 3.27 3.27 0 0 0-1.938-.196 3.33 3.33 0 0 0-1.717.944 3.483 3.483 0 0 0-.983 2.438c0 .451.087.9.256 1.32.254.63.684 1.169 1.235 1.548Zm10.102 0c.552.38 1.2.581 1.864.581a3.314 3.314 0 0 0 2.369-1.012 3.517 3.517 0 0 0 .42-4.353 3.378 3.378 0 0 0-1.506-1.27 3.268 3.268 0 0 0-1.938-.196 3.327 3.327 0 0 0-1.717.944 3.48 3.48 0 0 0-.982 2.438c0 .451.086.9.255 1.32.254.63.684 1.169 1.235 1.548Z" fill="#3A4D6B" fill-rule="evenodd"/></svg>