<svg width="50" height="47.491" fill="none" xmlns="http://www.w3.org/2000/svg"><path d="M8.3 18.317c-.024.001-.047.004-.07.006a.807.807 0 0 1-.097.007c-2.251-.062-3.409-1.755-3.409-3.444 0-1.591 1.027-3.18 3.135-3.402a.877.877 0 0 1-.034-.319l.445-4.454A7.43 7.43 0 0 1 15.685 0h2.6a7.429 7.429 0 0 1 7.416 6.71l.445 4.455a.876.876 0 0 1-.035.32c2.118.223 3.133 1.808 3.133 3.396 0 1.744-1.226 3.491-3.567 3.437-2.788 8.344-14.603 8.255-17.377 0Zm7.385-16.651a5.768 5.768 0 0 0-5.757 5.211l-.354 3.538h14.822l-.354-3.538a5.768 5.768 0 0 0-5.757-5.211h-2.6Zm.468 2.292a.833.833 0 1 1 1.666 0v3.124a.833.833 0 0 1-1.666 0V3.958Zm-5.707 8.123c2.171 4.678 10.906 4.68 13.08 0h-13.08Zm-2.622 3.393c0-.79.104-1.581.282-2.351-1.136.037-1.726.91-1.726 1.78 0 .798.497 1.596 1.525 1.746a8.38 8.38 0 0 1-.081-1.175Zm18.242 1.175a1.773 1.773 0 0 0 1.542-1.755c0-.968-.78-1.756-1.744-1.771.182.762.284 1.548.284 2.334 0 .398-.026.797-.082 1.192ZM9.643 13.932a8.47 8.47 0 0 0-.113.699 7.067 7.067 0 0 0-.047.81c0 3.972 3.34 7.511 7.502 7.471 4.145.088 7.512-3.512 7.512-7.485 0-.497-.053-1-.163-1.502-3.225 4.44-11.46 4.444-14.691.007Zm30.403 3.57a.834.834 0 0 1-1.666-.006v-.005l.019-2.5c.003-.46.354-.851.84-.827a.834.834 0 0 1 .826.834v.006l-.019 2.499Zm-4.165.667c0 .824-1.287 1.182-1.624.259l-.838-2.356a.934.934 0 0 1-.05-.298c0-.834 1.274-1.18 1.62-.26l.838 2.356a.886.886 0 0 1 .054.299Zm8.274.332a.834.834 0 0 1-1.561-.582l.872-2.342a.834.834 0 0 1 1.561.582l-.872 2.342Zm-9.986 2.328h13.332a2.503 2.503 0 0 1 2.499 2.5v3.333a2.502 2.502 0 0 1-2.5 2.5h-2.798c.212.84.313 1.684.313 2.513 0 5.75-4.832 10.894-10.846 10.817-7.183-.297-10.775-5.564-10.775-10.83 0-5.268 3.592-10.535 10.775-10.833Zm13.332 6.666a.834.834 0 0 0 .833-.833V23.33a.834.834 0 0 0-.834-.833H34.17c-6.08.251-9.118 4.708-9.118 9.164 0 4.457 3.04 8.915 9.117 9.166 5.136.088 9.18-4.367 9.18-9.2a8.579 8.579 0 0 0-.548-3.02.753.753 0 0 1-.05-.271c0-.439.373-.853.836-.84H47.5ZM29.887 47.491H4.084C.936 47.383 0 44.803 0 42.094c0-.159.003-.318.01-.477 0-7.85 5.274-14.675 12.825-16.595a.826.826 0 0 1 .871.306c.797 1.06 1.994 1.667 3.284 1.667 1.284 0 2.478-.607 3.275-1.667.483-.58 1.347-.238 2.101.06.272.108.53.21.75.26a.834.834 0 0 1 .486 1.075c-.34.79-1.072.51-1.737.258a4.038 4.038 0 0 0-.636-.208c-2.166 2.498-6.323 2.495-8.487 0a15.233 15.233 0 0 0-5.531 2.953c.678 2.015 2.45 3.726 4.89 4.723a2.903 2.903 0 0 1 2.28-1.122h5.208a2.92 2.92 0 0 1 2.916 2.916v1.041a2.92 2.92 0 0 1-2.916 2.917h-5.207a2.92 2.92 0 0 1-2.916-3.01v-.209l-.002-.335c0-.284.005-.567.027-.65-2.617-1.066-4.608-2.864-5.585-5.03a15.488 15.488 0 0 0-4.23 10.65l-.001.24c0 1.766.222 3.92 2.408 3.968h4.258V41.45a.833.833 0 0 1 1.666 0v4.375h13.956V41.45a.833.833 0 0 1 1.667 0v4.375h4.257a2.246 2.246 0 0 0 2.228-1.872c.193-1.023 1.655-.829 1.655.127a.987.987 0 0 1-.012.15 3.909 3.909 0 0 1-3.87 3.261Zm-1.55-15.83a5.839 5.839 0 0 1 5.833-5.832 5.839 5.839 0 0 1 5.832 5.832c-.292 7.725-11.37 7.727-11.664 0Zm1.667 0a4.17 4.17 0 0 0 4.166 4.166 4.17 4.17 0 0 0 4.166-4.166c-.195-5.513-8.136-5.514-8.332 0Zm-15.622 3.332c-.66-.01-1.25.57-1.25 1.245v1.046c0 .69.56 1.25 1.25 1.25h5.207c.69 0 1.25-.56 1.25-1.25v-1.04c0-.69-.56-1.25-1.25-1.25h-5.207Z" fill="#FFF" fill-rule="evenodd"/></svg>