<svg width="50" height="47.191" fill="none" xmlns="http://www.w3.org/2000/svg"><path d="M24.163 5.324a4.83 4.83 0 0 0-4.71-1.292L3.583 8.284a4.832 4.832 0 0 0-3.417 5.918l7.879 29.406a4.833 4.833 0 0 0 5.918 3.417l15.87-4.252a4.811 4.811 0 0 0 1.682-.826l4.522 1.212a4.833 4.833 0 0 0 5.918-3.417l7.879-29.406a4.832 4.832 0 0 0-3.417-5.918L30.547.166a4.832 4.832 0 0 0-5.918 3.417l-.466 1.741Zm1.112 1.81.844-3.152a3.289 3.289 0 0 1 4.03-2.326l15.87 4.252a3.29 3.29 0 0 1 2.325 4.03l-7.88 29.405a3.29 3.29 0 0 1-4.028 2.326l-3.754-1.006a4.82 4.82 0 0 0 .568-3.808L25.37 7.449a4.99 4.99 0 0 0-.095-.315Zm3.96 34.202-15.671 4.2a3.29 3.29 0 0 1-4.029-2.327l-7.88-29.405a3.29 3.29 0 0 1 2.327-4.03l15.87-4.252a3.29 3.29 0 0 1 3.798 1.714l-6.9 25.752a4.832 4.832 0 0 0 3.417 5.918l9.067 2.43Zm1.854-1.1-10.523-2.819a3.29 3.29 0 0 1-2.326-4.03l6.242-23.294 7.278 27.16a3.286 3.286 0 0 1-.671 2.983Z" fill="#FFF" fill-rule="evenodd"/></svg>