<svg width="50" height="48.78" fill="none" xmlns="http://www.w3.org/2000/svg"><path d="M24.613 4.23c5.794-5.64 15.218-5.64 21.012 0 4.31 4.196 5.477 10.341 3.316 15.602l-.003.006c-.74 1.764-1.816 3.458-3.313 4.915-3.945 3.84-9.531 5.039-14.54 3.691a.366.366 0 0 0-.356.08l-3.168 3.203c-.396.4-.936.625-1.498.625h-3.27a.301.301 0 0 0-.301.301v2.437a2.108 2.108 0 0 1-2.108 2.107h-2.568a.301.301 0 0 0-.301.302v2.436a2.107 2.107 0 0 1-2.108 2.107H12.84a.3.3 0 0 0-.3.302v3.104c0 .597-.254 1.166-.698 1.566l-1.358 1.223c-.387.35-.89.543-1.41.543H2.107A2.109 2.109 0 0 1 0 46.672v-6.613c0-.57.231-1.116.64-1.513L20.782 19.01a.376.376 0 0 0 .077-.382c-1.511-4.916-.254-10.497 3.754-14.399Zm19.752 1.295c-5.093-4.958-13.4-4.958-18.492 0-3.513 3.42-4.603 8.293-3.287 12.573.231.752.063 1.619-.546 2.21L1.898 39.843a.302.302 0 0 0-.091.216v6.613a.3.3 0 0 0 .3.302h6.965a.301.301 0 0 0 .202-.078l1.358-1.224a.302.302 0 0 0 .1-.224v-3.104c0-1.164.943-2.109 2.107-2.109h2.568a.3.3 0 0 0 .301-.3v-2.436c0-1.164.944-2.108 2.108-2.108h2.568a.301.301 0 0 0 .301-.301v-2.437c0-1.164.944-2.107 2.108-2.107h3.27a.3.3 0 0 0 .213-.09l3.169-3.202a2.17 2.17 0 0 1 2.11-.554c4.437 1.194 9.353.124 12.81-3.241 1.301-1.268 2.247-2.751 2.907-4.317 1.88-4.58.87-9.94-2.907-13.617Zm-9.055 8.813a4.217 4.217 0 0 1 0-6.077c1.723-1.679 4.519-1.679 6.243 0a4.217 4.217 0 0 1 0 6.077c-1.724 1.679-4.52 1.679-6.243 0Zm1.294-4.817a2.468 2.468 0 0 0 0 3.557 2.634 2.634 0 0 0 3.654 0 2.47 2.47 0 0 0 0-3.557 2.634 2.634 0 0 0-3.654 0ZM24.473 23.239a.903.903 0 1 0-1.26-1.294l-2.256 2.196a.903.903 0 1 0 1.26 1.294l2.256-2.196Zm-4.978 4.847a.904.904 0 0 0-1.257-1.298L4.163 40.414a.904.904 0 0 0 1.256 1.298l14.076-13.626Z" fill="#FFF" fill-rule="evenodd"/></svg>