<svg width="45.614" height="51.99" fill="none" xmlns="http://www.w3.org/2000/svg"><path d="M19.14 6.465a6.474 6.474 0 0 1-6.465 6.465A6.474 6.474 0 0 1 6.21 6.465 6.474 6.474 0 0 1 12.675 0a6.474 6.474 0 0 1 6.466 6.465Zm-1.323 0c0-2.837-2.31-5.14-5.142-5.14a5.144 5.144 0 0 0-5.14 5.14 5.144 5.144 0 0 0 5.14 5.14 5.144 5.144 0 0 0 5.142-5.14Zm16.9 12.197a5.619 5.619 0 0 0 5.614-5.614 5.619 5.619 0 0 0-5.614-5.614 5.619 5.619 0 0 0-5.613 5.614 5.619 5.619 0 0 0 5.613 5.614Zm0-9.904a4.29 4.29 0 1 1 0 8.58 4.29 4.29 0 0 1 0-8.58ZM44.58 23.95a6.06 6.06 0 0 0-2.807-2.245 19.301 19.301 0 0 0-6.979-1.306h-.023c-2.395 0-4.74.444-6.98 1.306a6.093 6.093 0 0 0-2.438 1.76 6.141 6.141 0 0 0-.492.686.663.663 0 1 0 1.123.704 4.725 4.725 0 0 1 2.292-1.915 18.155 18.155 0 0 1 6.506-1.217c2.235 0 4.42.408 6.506 1.217a4.8 4.8 0 0 1 2.193 1.755c.543.798.828 1.726.828 2.689v11.21a1.6 1.6 0 0 1-.722 1.33 1.569 1.569 0 0 1-.218.117l-1.65.733-9.554 4.261c-.207.089-.42.136-.645.136a1.581 1.581 0 0 1-.792-2.954.804.804 0 0 0 .143-.051.588.588 0 0 0 .123-.08l9.75-4.349a.66.66 0 0 0 .396-.61v-7.332a.66.66 0 1 0-1.323 0v6.902l-9.2 4.1c-1.951-1.187-4.25-1.79-6.838-1.79-1.814 0-3.498.303-5.029.9a3.274 3.274 0 0 0-.98-.669L6.595 34.256V24.92a.66.66 0 0 0-.954-.594q-.053.025-.098.059a.66.66 0 0 0-.272.535v9.767c0 .261.154.503.396.61l11.57 5.158a1.97 1.97 0 1 1-1.607 3.599l-.668-.295-.024-.013-.038-.017-.038-.018L2.5 38.198a1.978 1.978 0 0 1-1.17-1.803v-13.81a4.702 4.702 0 0 1 2.943-4.366l.667-.273a21.19 21.19 0 0 1 7.676-1.43c2.636 0 5.218.485 7.677 1.43l.668.273a4.709 4.709 0 0 1 2.493 2.351.653.653 0 0 0 .604.378.641.641 0 0 0 .282-.064.673.673 0 0 0 .32-.887 6.167 6.167 0 0 0-.84-1.31 6.002 6.002 0 0 0-2.351-1.704l-.675-.271h-.01a22.536 22.536 0 0 0-8.162-1.524 22.55 22.55 0 0 0-8.16 1.524h-.013l-.673.271a6.054 6.054 0 0 0-2.742 2.222A6.02 6.02 0 0 0 0 22.58v13.81c0 .782.277 1.52.756 2.1a3.32 3.32 0 0 0 1.2.915l1.548.69v11.23a.661.661 0 1 0 1.324 0V40.686l9.13 4.07v6.566a.658.658 0 0 0 .662.661.661.661 0 0 0 .661-.66v-5.981a3.262 3.262 0 0 0 1.135.2 3.3 3.3 0 0 0 3.014-1.956 3.29 3.29 0 0 0 .053-2.547 11.16 11.16 0 0 1 1.473-.422 13.29 13.29 0 0 1 2.806-.287c2.097 0 3.97.432 5.59 1.282a2.917 2.917 0 0 0-.508 3.15c.241.545.638.988 1.124 1.288.234.145.49.257.757.332a2.948 2.948 0 0 0 1.523.01v4.93a.66.66 0 1 0 1.323 0V45.84l7.73-3.445v8.922a.66.66 0 1 0 1.323 0v-9.52l1.264-.56a2.908 2.908 0 0 0 1.726-2.66v-11.21a6.085 6.085 0 0 0-1.057-3.433l.023.017Zm-25.783 8.138a4.985 4.985 0 0 0 4.981 4.981 4.985 4.985 0 0 0 4.981-4.981 4.985 4.985 0 0 0-4.98-4.982 4.985 4.985 0 0 0-4.982 4.982Zm8.627 0a3.655 3.655 0 0 1-3.651 3.652 3.655 3.655 0 0 1-3.652-3.652 3.654 3.654 0 0 1 3.652-3.652 3.654 3.654 0 0 1 3.651 3.652Zm-8.77 14.887a.656.656 0 0 0-.117.377v3.976a.66.66 0 1 0 1.324 0v-3.976a.658.658 0 0 0-.663-.662.66.66 0 0 0-.544.285Zm9.692-.285a.66.66 0 0 0-.66.662v3.976a.66.66 0 1 0 1.323 0v-3.976a.661.661 0 0 0-.663-.662Z" fill="#FFF" fill-rule="evenodd"/></svg>