<svg width="43.404" height="37" fill="none" xmlns="http://www.w3.org/2000/svg"><path d="M9.316 13.875c0 2.474.663 4.796 1.824 6.808-.33.076-.643.24-.902.492l-9.683 9.46a1.82 1.82 0 0 0 0 2.616l2.678 2.616c.74.723 1.938.723 2.678 0l9.88-9.65c.149-.147.261-.314.337-.491a14.387 14.387 0 0 0 7.391 2.024c7.844 0 14.204-6.212 14.204-13.875S31.363 0 23.519 0 9.316 6.212 9.316 13.875Zm22.625 9.599c2.767-2.32 4.519-5.76 4.519-9.599 0-6.982-5.794-12.642-12.941-12.642-4.403 0-8.292 2.148-10.63 5.43l19.052 16.81Zm-1.013.767a13.091 13.091 0 0 1-7.409 2.276 13.077 13.077 0 0 1-8.048-2.742l-1.306-1.164a13.557 13.557 0 0 1-.248-.26l-.772-.918a12.396 12.396 0 0 1-2.566-7.558c0-2.232.592-4.33 1.631-6.15l18.718 16.516Zm-16.15.585-.127-.112c-.482-.378-.94-.786-1.369-1.22a3.134 3.134 0 0 1-.293-.305l-.029-.034c-.284-.308-.554-.63-.81-.962l-.085-.102a.641.641 0 0 0-.934-.044l-9.684 9.46a.607.607 0 0 0 0 .872l2.678 2.616c.247.24.647.24.894 0l9.879-9.65a.291.291 0 0 0-.032-.446l.01-.013-.09-.068-.009.008ZM38.037 37c2.964 0 5.366-2.347 5.366-5.242S41 26.517 38.038 26.517c-2.963 0-5.366 2.346-5.366 5.241 0 2.895 2.403 5.242 5.366 5.242Zm0-1.233c2.266 0 4.103-1.795 4.103-4.009 0-2.214-1.837-4.008-4.103-4.008s-4.103 1.794-4.103 4.008 1.837 4.009 4.103 4.009Z" fill="#3A4D6B" fill-rule="evenodd"/></svg>