<svg width="37.55" height="60.327" fill="none" xmlns="http://www.w3.org/2000/svg"><path d="M19.345 5.527a.74.74 0 0 1-1.034.002.73.73 0 0 1-.217-.51v-4.2a.749.749 0 0 1 .185-.574.734.734 0 0 1 .55-.245.735.735 0 0 1 .735.818V5.01a.74.74 0 0 1-.22.517ZM13.642 6.74a.718.718 0 0 0 .672.438.73.73 0 0 0 .63-1.025l-1.68-3.814a.734.734 0 1 0-1.344.588l1.722 3.813Zm9.333.378c.093.04.193.06.294.06a.725.725 0 0 0 .672-.438l1.68-3.813a.734.734 0 0 0-1.344-.588l-1.68 3.813a.725.725 0 0 0-.013.562.73.73 0 0 0 .39.404Zm11.4 19.632h-2.588v-4.604A13.001 13.001 0 0 0 20.237 9.22a.762.762 0 0 0-.647.26.738.738 0 0 0-.134.68l.755 2.52v1.68a.735.735 0 0 0 .538.706 7.36 7.36 0 0 1 5.385 7.074v4.603H20.95a.745.745 0 0 0-.74.74v6.938l-1.806 2.092a.729.729 0 0 0 .093 1.05l4.401 3.579-2.965 4.384a.745.745 0 0 0-.108.57.748.748 0 0 0 .335.472l3.873 2.368-3.579 4.646a.73.73 0 0 0-.151.445v4.26a.732.732 0 0 0 .73.73h13.34a3.185 3.185 0 0 0 3.176-3.175V29.926a3.185 3.185 0 0 0-3.175-3.176ZM15.086 47.088l3.688 2.25c.16.11.27.275.31.463a.79.79 0 0 1-.133.58l-1.756 2.344v6.863a.736.736 0 0 1-.45.682.735.735 0 0 1-.281.057H3.175A3.183 3.183 0 0 1 0 57.151V31.278a3.183 3.183 0 0 1 3.175-3.175h2.638v-4.604A13.006 13.006 0 0 1 15.6 10.907a.738.738 0 0 1 .84.462l.613 1.68a.588.588 0 0 1 0 .244v2.478a.734.734 0 0 1-.504.706 7.39 7.39 0 0 0-3.654 2.62 7.266 7.266 0 0 0-1.428 4.402v4.528h4.897a.732.732 0 0 1 .73.74v4.2a.72.72 0 0 1-.175.478l-3.487 4.041 4.747 3.823a.732.732 0 0 1 .15.982l-3.242 4.797Zm6.595-33.258v-1.25a.584.584 0 0 0 0-.21l-.48-1.472a11.536 11.536 0 0 1 9.124 11.248v4.604h-2.73v-4.604a8.827 8.827 0 0 0-5.914-8.316Zm-6.41-1.344a11.5 11.5 0 0 0-4.62 2.823 11.441 11.441 0 0 0-3.369 8.19v4.604h2.722v-4.604a8.821 8.821 0 0 1 5.603-8.24v-1.84l-.336-.933ZM36.08 55.833a1.68 1.68 0 0 1-1.68 1.68H21.8v-3.277l3.88-5.14a.736.736 0 0 0 .02-.826.722.722 0 0 0-.205-.208l-3.906-2.394 2.915-4.3a.732.732 0 0 0-.151-.983l-4.335-3.495 1.496-1.73a.766.766 0 0 0 .176-.48v-6.46h12.684a1.678 1.678 0 0 1 1.68 1.68l.026 25.933Zm-20.354-3.327a.788.788 0 0 1 .151-.446l1.411-1.89-3.645-2.233a.728.728 0 0 1-.337-.471.766.766 0 0 1 .11-.572l3.293-4.864-4.814-3.88a.753.753 0 0 1-.268-.505.716.716 0 0 1 .176-.545l3.805-4.36v-3.184H3.175a1.683 1.683 0 0 0-1.68 1.68v25.966a1.679 1.679 0 0 0 1.68 1.68h12.55v-6.376Z" fill="#FFF" fill-rule="evenodd"/></svg>