<svg width="50" height="47.077" fill="none" xmlns="http://www.w3.org/2000/svg"><path d="M13.546 0c2.862 0 5.298.224 7.31.67q2.697.6 4.216 2.27.18.2.345.414c1.073 1.295 1.609 3.263 1.609 5.9q0 2.637-.75 5.038-.147.47-.323.93c-.67 1.879-1.7 3.824-3.085 5.836q-2.012 2.95-5.163 6.572L2.146 45.603h26.959v1.474H0v-.938c0-.224.022-.403.067-.537l.268-.402L16.43 26.624q4.695-5.433 6.774-9.59 2.02-3.914 2.02-7.827 0-.244-.009-.49c-.089-2.19-.626-3.777-1.609-4.76-.939-1.028-2.258-1.677-3.957-1.945q-2.481-.47-5.767-.47-2.08 0-4.024.135-1.878.066-4.024.402c-1.43.224-3.107.536-5.03.939L.403 1.81q3.22-.805 5.432-1.14A38.684 38.684 0 0 1 9.858.134 50.243 50.243 0 0 1 13.546 0ZM50 .804v46.273h-1.677V5.633c0-.492.023-1.006.068-1.543.044-.536.089-1.05.133-1.542l-12.54 4.224-.335-1.073L48.323.804H50Z" fill="#FFF" fill-rule="evenodd"/></svg>