<svg width="53.604" height="44.67" fill="none" xmlns="http://www.w3.org/2000/svg"><path d="M6.48 0C2.9 0 0 2.973 0 6.64v31.994c0 3.334 2.637 6.036 5.89 6.036h41.823c3.254 0 5.891-2.702 5.891-6.036V15.09c0-3.333-2.637-6.036-5.89-6.036H43.59V6.64c0-3.667-2.901-6.64-6.48-6.64H6.48Zm35.932 9.055V6.64c0-3-2.373-5.433-5.302-5.433H6.48c-2.928 0-5.302 2.433-5.302 5.433v4.829c1.075-1.466 2.786-2.414 4.713-2.414h36.521ZM50.66 19.92c.663 0 1.275.224 1.767.603v-5.432c0-2.667-2.11-4.83-4.713-4.83H5.891c-2.603 0-4.713 2.163-4.713 4.83v23.543c0 2.667 2.11 4.829 4.713 4.829h41.822c2.603 0 4.713-2.162 4.713-4.83v-4.828a2.886 2.886 0 0 1-1.767.603H35.932c-1.626 0-2.945-1.351-2.945-3.018v-8.451c0-1.668 1.319-3.02 2.945-3.02H50.66Zm-34.471-2.694q2.871 0 4.292 1.085c.967.707 1.45 1.822 1.45 3.347 0 .859-.17 1.602-.511 2.23a7.762 7.762 0 0 1-1.28 1.688c-.492.515-.995 1.049-1.507 1.602a8.262 8.262 0 0 0-1.279 1.86c-.36.686-.559 1.524-.597 2.516h-2.075c-.019-1.05.123-1.954.426-2.717a7.846 7.846 0 0 1 1.138-2.002c.473-.572.947-1.097 1.421-1.573q.71-.743 1.194-1.488a3.212 3.212 0 0 0 .512-1.687c.038-.953-.247-1.658-.853-2.116-.588-.458-1.535-.687-2.843-.687-.928 0-1.696.01-2.303.029-.587.019-1.127.057-1.62.115-.474.038-1.033.085-1.677.142l-.142-1.744c.493-.096.938-.172 1.336-.23a16.492 16.492 0 0 1 2.757-.314 34.291 34.291 0 0 1 2.161-.056Zm34.47 3.902c.977 0 1.768.81 1.768 1.81v8.452c0 1-.791 1.81-1.767 1.81H35.932c-.976 0-1.767-.81-1.767-1.81v-8.451c0-1 .791-1.811 1.767-1.811H50.66Zm-7.657 6.036c0 1.667-1.318 3.019-2.945 3.019-1.627 0-2.946-1.352-2.946-3.019s1.32-3.019 2.946-3.019c1.627 0 2.945 1.352 2.945 3.02Zm-1.178 0c0 1-.791 1.812-1.767 1.812-.976 0-1.767-.812-1.767-1.812s.79-1.81 1.767-1.81c.976 0 1.767.81 1.767 1.81Zm-25.095 7.25c-.133-.134-.36-.2-.683-.2h-.653c-.322 0-.55.066-.682.2-.133.133-.2.371-.2.715v1.544c0 .344.067.582.2.715.132.134.36.2.682.2h.653c.323 0 .55-.066.683-.2.132-.133.199-.371.199-.715v-1.544c0-.344-.067-.582-.199-.715Z" fill="#FFF" fill-rule="evenodd"/></svg>