<svg width="52" height="46.146" viewBox="0 0 52 46.147" fill="none" xmlns="http://www.w3.org/2000/svg"><path d="M22.367 2.098c1.614-2.797 5.652-2.797 7.266 0l21.799 37.755c1.614 2.797-.404 6.294-3.633 6.294H4.2c-3.229 0-5.247-3.497-3.633-6.294l21.8-37.755Zm5.813.839 21.798 37.755c.97 1.68-.242 3.777-2.18 3.777H4.202c-1.937 0-3.148-2.098-2.18-3.776l21.8-37.756c.968-1.678 3.39-1.678 4.359 0Zm-3.02 29.075v-16.78h1.678v16.78H25.16Zm.84 5.034a.838.838 0 1 0 0-1.677.838.838 0 0 0 0 1.677Z" fill="#FFF" fill-rule="evenodd"/></svg>