<svg width="56.43" height="41.758" fill="none" xmlns="http://www.w3.org/2000/svg"><path d="M52.338 24.427c-12.003-1.466-16.57-5.523-17.51-5.844-6.33-4.162-9.946-10.123-11.856-16.753a2.294 2.294 0 0 0-.482-.866 2.713 2.713 0 0 0-.834-.638A3.118 3.118 0 0 0 20.599.02a3.246 3.246 0 0 0-1.112.07L5.83 3.36a2.884 2.884 0 0 0-1.49.872 2.23 2.23 0 0 0-.577 1.471v27.95c0 .429.199.841.551 1.145.353.304.832.475 1.33.475h1.88v1.621H2.822c-.748 0-1.466.256-1.995.712-.529.456-.826 1.076-.826 1.72 0 .646.297 1.264.826 1.72.53.456 1.247.712 1.995.712h48.907c1.246-.001 2.441-.429 3.323-1.189.882-.76 1.378-1.79 1.38-2.864v-9.26c0-.985-.414-1.935-1.168-2.675-.753-.739-1.793-1.216-2.925-1.343ZM19.99 1.652a1.08 1.08 0 0 1 .717.075.92.92 0 0 1 .277.209.77.77 0 0 1 .161.285c.953 3.428 2.485 6.717 4.55 9.76l-1.907 1.644a.755.755 0 0 0-.264.57.759.759 0 0 0 .275.566c.175.15.411.236.657.238.247.001.484-.08.662-.228l1.594-1.375a28.757 28.757 0 0 0 2.542 2.813l-1.704 1.469a.755.755 0 0 0-.265.57.76.76 0 0 0 .275.567c.175.15.411.236.658.238.247.002.485-.08.662-.229l1.654-1.426a30.06 30.06 0 0 0 2.559 1.987l-1.781 1.535a.757.757 0 0 0-.264.57.76.76 0 0 0 .276.567c.174.15.41.235.656.237.247.002.484-.08.662-.228l1.962-1.691c5.208 3.074 11.202 5.016 17.47 5.657.682.074 1.31.36 1.765.804.456.443.708 1.016.71 1.608v5.208H28.748a1.07 1.07 0 0 1-.494-.12l-11.772-6.244a1.305 1.305 0 0 0-.494-.12H5.643V11.767h.94c1.247-.002 2.442-.43 3.324-1.189.882-.76 1.378-1.79 1.38-2.865V3.735l8.703-2.083Zm21.392 33.621h9.405v1.621h-9.405v-1.62Zm-28.215 0h1.88c.5 0 .978-.171 1.33-.475.353-.304.551-.716.552-1.146V29.43l10.34 5.484c.445.235.957.36 1.479.36h6.99v1.621h-22.57v-1.62ZM6.332 4.922l3.073-.736v3.527c0 .645-.299 1.263-.827 1.719-.53.456-1.246.713-1.994.713h-.94V5.703a.74.74 0 0 1 .191-.49.954.954 0 0 1 .497-.291Zm-.689 23.867h9.405v4.863H5.644V28.79Zm48.906 8.916c0 .645-.298 1.263-.827 1.719-.53.456-1.246.713-1.995.713H2.822a1.02 1.02 0 0 1-.665-.238.758.758 0 0 1-.275-.573.76.76 0 0 1 .275-.573 1.03 1.03 0 0 1 .665-.237h4.703c.498 0 .977-.171 1.33-.476.352-.304.55-.716.55-1.145v-1.622h1.882v1.621c0 .43.199.842.551 1.146.353.305.832.476 1.33.476H35.74a2.04 2.04 0 0 0 1.33-.476c.352-.304.55-.716.551-1.145v-1.622h1.881v1.621c0 .43.199.842.552 1.146.352.305.83.476 1.329.476h9.405a2.04 2.04 0 0 0 1.33-.476c.352-.304.55-.716.551-1.145v-1.622h1.88v2.432Z" fill="#FFF" fill-rule="evenodd"/></svg>