<svg width="58.893" height="39.73" fill="none" xmlns="http://www.w3.org/2000/svg"><path d="M58.198.715c-4.704.65-9.98 1.126-15.685 1.418l.304-1.39A.613.613 0 0 0 42.221 0h-2.819a.611.611 0 0 0-.611.611v1.685c-6.133.218-12.554.218-18.689 0V.61a.611.611 0 0 0-.611-.61h-2.818a.607.607 0 0 0-.597.742l.305 1.39C10.675 1.842 5.399 1.365.695.716a.611.611 0 1 0-.167 1.212c4.83.667 10.255 1.153 16.122 1.445l.43 1.97h-6.896a.611.611 0 0 0-.611.611v33.165a.612.612 0 1 0 1.222 0v-2.616h1.637v2.616a.612.612 0 0 0 1.223 0v-2.616h1.636v2.616a.612.612 0 0 0 1.224 0v-2.616h1.636v2.616a.612.612 0 0 0 1.223 0v-2.616h1.637v2.616a.612.612 0 0 0 1.222 0v-2.616h1.637v2.616a.612.612 0 0 0 1.222 0v-5.864h1.637v2.616a.611.611 0 1 0 1.222 0V5.953a.611.611 0 0 0-.611-.611h-7.237V3.519c3.067.108 6.203.168 9.344.168 3.141 0 6.277-.06 9.344-.168V5.44a9.691 9.691 0 0 0-4.312 1.743c-.652-.254-1.425-.188-2.002.253l-.929.713a2.028 2.028 0 0 0-.782 1.356 2.028 2.028 0 0 0 .405 1.51l10.598 13.798c.39.508.982.8 1.621.8.454 0 .884-.147 1.243-.425l.931-.714c.595-.458.86-1.18.773-1.876a9.667 9.667 0 0 0 3.478-6.25 9.668 9.668 0 0 0-.846-5.41c.03.002.059.012.09.012a2.706 2.706 0 0 0-.003-5.412c-.6 0-1.17.194-1.647.56a2.68 2.68 0 0 0-.974 1.54 9.642 9.642 0 0 0-4.653-2.158l.46-2.11c5.868-.292 11.293-.778 16.123-1.445a.612.612 0 0 0-.167-1.211Zm-33.106 5.85h1.636V32.03h-1.636V6.564Zm-1.223 28.714H10.795V6.564H23.87V35.28ZM18.332 5.342l-.9-4.12h1.446v4.12h-.546Zm21.682-4.12h1.447l-.9 4.12h-.548v-4.12Zm-7.873 9.05a.81.81 0 0 1-.162-.607.813.813 0 0 1 .315-.543l.929-.715a.818.818 0 0 1 1.151.153l.425.553-2.232 1.715-.426-.556Zm1.17 1.526 2.233-1.715.754.983-2.23 1.714-.756-.982Zm1.5 1.953 2.233-1.715.727.945.028.038-2.232 1.714-.755-.982Zm1.501 1.952 2.232-1.715.754.984-2.231 1.716-.755-.985Zm1.5 1.953 2.23-1.714.755.983-2.23 1.714-.755-.983Zm1.501 1.952 2.23-1.713.754.984-2.23 1.714-.754-.985Zm2.254 2.936-.755-.983 2.232-1.714.754.982-2.231 1.715Zm3.252.962-.93.715a.836.836 0 0 1-1.15-.152l-.427-.555 2.231-1.716.426.557c.004.002.005.01.008.014a.82.82 0 0 1-.158 1.137ZM48.155 7.07c.26-.2.573-.306.9-.306.465 0 .895.212 1.178.58.497.648.374 1.58-.273 2.079-.631.483-1.593.354-2.077-.272l-.002-.003-.003-.002a1.488 1.488 0 0 1 .277-2.076Zm-.188 7.105a8.21 8.21 0 0 0 .435-1.24 8.522 8.522 0 0 1 .201 3.257 8.447 8.447 0 0 1-2.787 5.257l-1.799-2.342c1.784-1.47 3.178-3.202 3.95-4.932Zm-.76-3.736c.327.84.212 1.959-.357 3.238-.69 1.547-1.943 3.11-3.576 4.465l-.846-1.103-1.415-1.842 6.194-4.757Zm-.743-.971-6.195 4.759-2.263-2.947c2.122-1.507 4.454-2.393 6.335-2.393.652 0 1.487.117 2.123.58Zm-9.197.85-1.802-2.345a8.43 8.43 0 0 1 4.686-1.41c1.497 0 2.923.394 4.178 1.103-2.129.003-4.724.987-7.062 2.652Z" fill="#FFF" fill-rule="evenodd"/></svg>