<svg width="49" height="49" fill="none" xmlns="http://www.w3.org/2000/svg"><path d="M8.072 21.002a1.14 1.14 0 0 1-.14 1.605l-3.296 2.765a1.137 1.137 0 0 1-1.604-.14L.267 21.935a1.138 1.138 0 1 1 1.745-1.463l.972 1.158A21.528 21.528 0 0 1 9.15 9.152a1.139 1.139 0 1 1 1.611 1.612 19.268 19.268 0 0 0-5.51 11.119l1.217-1.02a1.14 1.14 0 0 1 1.604.139Zm17.3 23.362a1.14 1.14 0 0 1-.14 1.605l-3.296 2.764a1.136 1.136 0 0 1-1.604-.14 1.139 1.139 0 0 1 .14-1.605l1.168-.978a21.539 21.539 0 0 1-12.488-6.161 1.14 1.14 0 0 1 1.61-1.612 19.277 19.277 0 0 0 11.124 5.515l-1.023-1.22a1.138 1.138 0 1 1 1.746-1.464l2.764 3.296Zm23.22-15.696a1.137 1.137 0 0 1-1.604-.14l-.978-1.166a21.522 21.522 0 0 1-6.16 12.486 1.131 1.131 0 0 1-.806.334 1.138 1.138 0 0 1-.805-1.944 19.27 19.27 0 0 0 5.506-11.118l-1.212 1.017a1.138 1.138 0 1 1-1.464-1.746l3.295-2.765a1.138 1.138 0 0 1 1.604.142l2.765 3.294a1.14 1.14 0 0 1-.14 1.606ZM23.628 4.636a1.139 1.139 0 0 1 .14-1.605L27.064.266a1.14 1.14 0 0 1 1.464 1.746l-1.167.978a21.528 21.528 0 0 1 12.487 6.16 1.14 1.14 0 0 1-1.61 1.612A19.267 19.267 0 0 0 27.12 5.256l1.017 1.21a1.14 1.14 0 0 1-1.747 1.466l-2.763-3.296Z" fill="#FFF" fill-rule="evenodd"/></svg>